<?xml version="1.0" standalone="no"?>
<!DOCTYPE svg PUBLIC "-//W3C//DTD SVG 20010904//EN"
 "http://www.w3.org/TR/2001/REC-SVG-20010904/DTD/svg10.dtd">
<svg version="1.0" xmlns="http://www.w3.org/2000/svg"
 width="300.000000pt" height="300.000000pt" viewBox="0 0 300.000000 300.000000"
 preserveAspectRatio="xMidYMid meet">
<metadata>
Created by potrace 1.11, written by Peter Selinger 2001-2013
</metadata>
<g transform="translate(0.000000,300.000000) scale(0.100000,-0.100000)"
fill="#000000" stroke="none">
<path d="M1430 2663 c0 -21 -13 -25 -37 -10 -9 5 -13 2 -13 -8 0 -11 -5 -15
-15 -11 -8 3 -19 -2 -23 -11 -6 -10 -17 -14 -31 -10 -13 3 -21 0 -21 -7 0 -16
-35 -48 -43 -40 -3 3 -3 -4 0 -16 3 -12 1 -25 -5 -29 -6 -3 -13 -20 -16 -36
-2 -17 -5 -30 -6 -30 -2 0 -5 -16 -14 -58 -4 -23 -2 -26 9 -17 18 15 24 2 30
-64 4 -46 2 -57 -13 -65 -19 -10 -29 -61 -12 -61 9 0 11 10 10 35 -1 9 28 35
39 35 5 0 8 -9 6 -20 -2 -11 1 -20 6 -20 6 0 7 -5 3 -12 -5 -7 -1 -9 12 -6 20
5 37 -7 42 -30 2 -12 -10 -16 -38 -12 -8 1 -12 -1 -8 -5 4 -4 1 -14 -7 -22
-17 -16 -20 -33 -6 -33 5 0 11 9 14 20 6 24 30 26 51 4 10 -10 13 -21 8 -32
-4 -9 -6 -125 -4 -257 1 -132 4 -306 5 -387 0 -82 4 -148 7 -148 3 0 6 -143 5
-317 0 -175 1 -322 4 -328 8 -15 8 -66 1 -70 -4 -3 -6 -21 -3 -41 2 -19 5 -79
7 -131 2 -80 6 -98 21 -109 10 -8 22 -14 26 -14 19 0 39 35 40 68 2 36 2 54
-2 152 -1 25 -1 61 -1 80 4 65 -7 391 -13 400 -3 5 -1 11 4 14 4 3 6 63 4 133
-2 71 -5 152 -6 180 -1 29 -4 53 -7 53 -8 0 -5 68 2 76 4 4 3 16 -3 27 -8 15
-8 18 1 12 9 -5 10 -2 3 11 -10 23 -10 45 0 61 4 6 4 14 -1 17 -5 3 -7 29 -5
58 4 65 4 66 3 103 -1 17 1 40 4 53 3 12 1 22 -4 22 -9 0 -6 32 5 50 3 6 1 10
-5 10 -6 0 -8 4 -5 10 3 5 8 45 11 87 4 69 8 107 14 123 1 3 1 13 0 24 -1 11
3 17 12 14 7 -3 12 -15 12 -26 -2 -24 11 -30 19 -8 3 7 1 18 -5 24 -6 6 -8 22
-4 36 11 44 89 50 81 6 -2 -11 0 -20 6 -20 5 0 9 14 9 30 0 27 3 30 28 29 15
0 37 2 50 4 12 3 22 2 22 -4 0 -5 6 -9 13 -9 8 0 22 -9 32 -20 17 -18 41 -19
30 0 -3 5 4 12 16 15 20 7 20 8 5 24 -16 15 -18 15 -27 -1 -6 -10 -15 -18 -20
-18 -6 0 -7 6 -3 13 4 6 4 9 -1 5 -8 -8 -34 19 -35 36 0 4 17 5 38 1 l37 -7
-29 31 c-35 37 -42 98 -14 119 22 16 23 32 3 32 -24 0 -36 41 -19 68 8 12 12
23 9 23 -3 1 -9 2 -13 3 -5 0 -17 9 -27 19 -13 14 -15 21 -6 30 6 6 11 15 11
21 0 6 -5 5 -12 -2 -16 -16 -55 -15 -61 2 -3 7 1 24 10 35 20 30 10 38 -16 12
-27 -27 -35 -26 -49 5 -7 14 -17 22 -22 19 -6 -4 -18 -1 -26 6 -12 10 -17 10
-23 0 -10 -15 -32 -11 -48 9 -11 13 -12 12 -13 -7z"/>
<path d="M1164 2186 c-10 -8 -17 -16 -14 -19 3 -2 14 4 24 14 23 22 18 25 -10
5z"/>
<path d="M1244 2173 c-10 -10 -26 -22 -37 -28 -29 -14 -42 -39 -32 -61 4 -11
7 -23 6 -27 -1 -5 4 -5 10 -2 7 5 7 11 1 17 -10 10 -4 50 7 44 3 -1 23 14 45
36 21 21 34 38 28 38 -6 0 -18 -8 -28 -17z"/>
<path d="M1528 2084 c-6 -15 -3 -59 5 -61 4 -2 7 0 8 5 0 4 7 14 15 24 10 11
12 18 5 23 -6 3 -11 3 -11 -2 0 -4 -4 -2 -9 6 -5 7 -10 9 -13 5z"/>
<path d="M1495 2040 c3 -5 11 -10 16 -10 6 0 7 5 4 10 -3 6 -11 10 -16 10 -6
0 -7 -4 -4 -10z"/>
<path d="M1850 2026 c0 -16 13 -32 31 -38 13 -5 16 -1 15 17 -1 16 -8 25 -23
28 -13 2 -23 -1 -23 -7z"/>
<path d="M1480 1806 c-6 -16 -13 -44 -16 -62 -4 -27 -2 -34 11 -34 11 0 15 5
12 14 -3 8 -3 17 1 21 4 4 7 10 8 13 0 4 4 15 8 24 4 9 3 25 -2 35 -10 16 -12
15 -22 -11z"/>
<path d="M1608 1755 c-3 -14 -2 -25 3 -25 4 0 6 -9 4 -20 -2 -11 0 -20 4 -20
9 0 8 76 -1 85 -3 3 -8 -6 -10 -20z"/>
<path d="M1707 1571 c-3 -11 -1 -21 4 -21 5 0 9 -9 9 -20 0 -11 5 -20 10 -20
10 0 4 42 -10 69 -5 10 -9 8 -13 -8z"/>
<path d="M1733 1486 c4 -10 7 -22 7 -27 0 -5 4 -9 9 -9 12 0 2 38 -12 47 -7 4
-8 0 -4 -11z"/>
<path d="M1697 1377 c-4 -10 -2 -17 3 -17 5 0 7 -10 5 -22 -3 -12 1 -26 8 -30
9 -6 9 -8 0 -8 -7 0 -10 -7 -7 -15 4 -8 10 -15 16 -15 10 0 4 63 -9 99 -8 20
-11 21 -16 8z"/>
<path d="M1723 1238 c4 -33 13 -44 20 -24 3 8 -1 22 -9 33 -13 17 -14 16 -11
-9z"/>
</g>
</svg>
